<svg xmlns="http://www.w3.org/2000/svg" width="96" height="96" viewBox="0 0 96 96" role="img" aria-label="Walsh Law crest">
  <defs>
    <linearGradient id="g" x1="0" x2="1" y1="0" y2="1">
      <stop offset="0" stop-color="#c8a24a"/>
      <stop offset="1" stop-color="#f2d37a"/>
    </linearGradient>
  </defs>
  <rect x="10" y="10" width="76" height="76" rx="18" fill="#071a2f" stroke="url(#g)" stroke-width="3"/>
  <path d="M48 22c8 7 16 10 24 11v18c0 18-10 28-24 33-14-5-24-15-24-33V33c8-1 16-4 24-11Z" fill="rgba(200,162,74,0.12)" stroke="url(#g)" stroke-width="2"/>
  <path d="M48 34v28" stroke="url(#g)" stroke-width="2" stroke-linecap="round"/>
  <path d="M35 40h26" stroke="url(#g)" stroke-width="2" stroke-linecap="round"/>
  <path d="M38 40c-5 6-8 9-8 13 0 3 2 5 6 5h4" fill="none" stroke="url(#g)" stroke-width="2" stroke-linecap="round"/>
  <path d="M58 40c5 6 8 9 8 13 0 3-2 5-6 5h-4" fill="none" stroke="url(#g)" stroke-width="2" stroke-linecap="round"/>
  <path d="M40 58h16" stroke="url(#g)" stroke-width="2" stroke-linecap="round"/>
  <text x="48" y="73" text-anchor="middle" font-family="DejaVu Sans, Arial" font-size="10" fill="#e9eef7" letter-spacing="1">WL</text>
</svg>
